# This file uses centimeters as units for non-parametric coordinates.

mtllib banqueta.mtl
g default
v -84.148428 -9.454829 76.498268
v 83.903746 -9.454829 76.498268
v -84.148428 -8.016171 76.498268
v 83.903746 -8.016171 76.498268
v -84.148428 -8.016171 -75.534004
v 83.903746 -8.016171 -75.534004
v -84.148428 -9.454829 -75.534004
v 83.903746 -9.454829 -75.534004
v -84.148428 -8.016171 44.060969
v 83.903746 -8.016171 44.060969
v 83.903746 -9.454829 44.060969
v -84.148428 -9.454829 44.060969
v 48.958809 -9.454829 76.498268
v 48.958809 -9.454829 44.060969
v 48.958809 -9.454829 -75.534004
v 48.958809 -8.016171 -75.534004
v 48.958809 -8.016171 44.060969
v 48.958809 -8.016171 76.498268
v 25.061801 -9.454829 76.498268
v 25.061801 -9.454829 44.060969
v 25.061801 -9.454829 -75.534004
v 25.061801 -8.016171 -75.534004
v 25.061801 -8.016171 44.060969
v 25.061801 -8.016171 76.498268
v -84.148428 -9.454829 22.731921
v 25.061801 -9.454829 22.731923
v 48.958809 -9.454829 22.731923
v 83.903746 -9.454829 22.731921
v 83.903746 -8.016171 22.731923
v 48.958809 -8.016171 22.731921
v 25.061801 -8.016171 22.731921
v -84.148428 -8.016171 22.731923
vt 0.375000 0.000000
vt 0.625000 0.000000
vt -0.000229 -0.025856
vt 0.494112 -0.001811
vt 0.375000 0.500000
vt 0.625000 0.500000
vt 0.375000 0.750000
vt 0.625000 0.750000
vt 0.375000 1.000000
vt 0.625000 1.000000
vt 0.875000 0.000000
vt 0.875000 0.250000
vt 0.125000 0.000000
vt 0.125000 0.250000
vt 0.321660 0.250000
vt 0.044306 0.025693
vt 1.028789 1.000683
vt 0.678339 0.250000
vt 0.625000 0.946661
vt 0.678339 0.000000
vt 0.321660 0.000000
vt 0.375000 0.946661
vt 0.573015 0.000000
vt 0.573015 1.000000
vt 0.573015 0.946661
vt 0.573015 0.750000
vt 0.573015 0.500000
vt 0.989844 1.000396
vt 0.205549 -0.001811
vt 0.008026 0.005456
vt 1.029120 0.007950
vt 0.494112 0.998457
vt 0.007695 0.998190
vt 0.500762 0.076500
vt 0.205549 0.998457
vt 0.989844 -0.025856
vt -0.000229 1.000396
vt 0.375000 0.250000
vt 0.537465 0.000000
vt 0.537465 1.000000
vt 0.537465 0.946661
vt 0.537465 0.750000
vt 0.537465 0.500000
vt -0.258083 0.076500
vt 0.812094 1.000396
vt 0.812094 -0.025856
vt 0.537465 0.250000
vt 0.286587 0.000000
vt 0.375000 0.911587
vt 0.537465 0.911587
vt 0.573015 0.911587
vt 0.625000 0.911587
vt 0.713413 0.000000
vt 0.846683 1.000238
vt 0.713413 0.250000
vt 0.847014 0.007505
vt 1.768888 1.054014
vt 0.537465 0.338413
vt 0.286587 0.250000
vt 0.375000 0.338413
vt 0.573015 0.250000
vt 0.625000 0.250000
vt 0.500762 0.167179
vt 1.792269 -0.036409
vt -0.777830 -0.048411
vt -0.801211 1.042013
vt -0.258083 0.167179
vt 0.939812 0.990249
vt 0.044306 0.990249
vt 0.939812 0.025693
vn 0.000000 0.000000 1.000000
vn 0.000000 0.000000 1.000000
vn 0.000000 0.000000 1.000000
vn 0.000000 0.000000 1.000000
vn 0.000000 1.000000 0.000000
vn 0.000000 1.000000 0.000000
vn 0.000000 1.000000 0.000000
vn 0.000000 1.000000 0.000000
vn 0.000000 0.000000 -1.000000
vn 0.000000 0.000000 -1.000000
vn 0.000000 0.000000 -1.000000
vn 0.000000 0.000000 -1.000000
vn 0.000000 -1.000000 0.000000
vn 0.000000 -1.000000 0.000000
vn 0.000000 -1.000000 0.000000
vn 0.000000 -1.000000 0.000000
vn 1.000000 0.000000 0.000000
vn 1.000000 0.000000 0.000000
vn 1.000000 0.000000 0.000000
vn 1.000000 0.000000 0.000000
vn -1.000000 0.000000 0.000000
vn -1.000000 0.000000 0.000000
vn -1.000000 0.000000 0.000000
vn -1.000000 0.000000 0.000000
vn 0.000000 1.000000 0.000000
vn 0.000000 1.000000 0.000000
vn 1.000000 0.000000 0.000000
vn 1.000000 0.000000 0.000000
vn 0.000000 -1.000000 0.000000
vn 0.000000 -1.000000 0.000000
vn -1.000000 0.000000 0.000000
vn -1.000000 0.000000 0.000000
vn 0.000000 -1.000000 0.000000
vn 0.000000 -1.000000 0.000000
vn 0.000000 -1.000000 0.000000
vn 0.000000 0.000000 -1.000000
vn 0.000000 0.000000 -1.000000
vn 0.000000 1.000000 0.000000
vn 0.000000 1.000000 0.000000
vn 0.000000 1.000000 0.000000
vn 0.000000 0.000000 1.000000
vn 0.000000 0.000000 1.000000
vn 0.000000 -1.000000 0.000000
vn 0.000000 -1.000000 0.000000
vn 0.000000 -1.000000 0.000000
vn 0.000000 0.000000 -1.000000
vn 0.000000 0.000000 -1.000000
vn 0.000000 1.000000 0.000000
vn 0.000000 1.000000 0.000000
vn 0.000000 1.000000 0.000000
vn 0.000000 0.000000 1.000000
vn 0.000000 0.000000 1.000000
vn 0.000000 -1.000000 0.000000
vn 0.000000 -1.000000 0.000000
vn 0.000000 -1.000000 0.000000
vn 0.000000 -1.000000 0.000000
vn 1.000000 0.000000 0.000000
vn 1.000000 0.000000 0.000000
vn 0.000000 1.000000 0.000000
vn 0.000000 1.000000 0.000000
vn 0.000000 1.000000 0.000000
vn 0.000000 1.000000 0.000000
vn -1.000000 0.000000 0.000000
vn -1.000000 0.000000 0.000000
s 1
g pCube83
usemtl initialShadingGroup
f 18/61/1 13/23/2 2/2/3 4/62/4
s 2
usemtl lambert10SG
f 29/54/5 30/56/6 17/31/7 10/17/8
s 3
usemtl initialShadingGroup
f 15/26/9 16/27/10 6/6/11 8/8/12
s 4
f 14/25/13 27/51/14 28/52/15 11/19/16
s 5
f 10/18/17 11/20/18 28/53/19 29/55/20
s 6
f 32/59/21 25/48/22 12/21/23 9/15/24
s 2
usemtl lambert10SG
f 17/35/7 18/29/25 4/4/26 10/32/8
s 5
usemtl initialShadingGroup
f 2/2/27 11/20/18 10/18/17 4/62/28
s 4
f 13/24/29 14/25/13 11/19/16 2/10/30
s 6
f 9/15/24 12/21/23 1/1/31 3/38/32
s 4
f 19/40/33 20/41/34 14/25/13 13/24/29
f 20/41/34 26/50/35 27/51/14 14/25/13
s 3
f 21/42/36 22/43/37 16/27/10 15/26/9
s 2
usemtl lambert11SG
f 30/63/6 31/67/38 23/44/39 17/34/7
usemtl lambert10SG
f 23/45/39 24/46/40 18/36/25 17/28/7
s 1
usemtl initialShadingGroup
f 24/47/41 19/39/42 13/23/2 18/61/1
s 4
f 12/22/43 20/41/34 19/40/33 1/9/44
f 25/49/45 26/50/35 20/41/34 12/22/43
s 3
f 5/5/46 22/43/37 21/42/36 7/7/47
s 2
usemtl lambert11SG
f 9/16/48 23/70/39 31/68/38 32/69/49
usemtl lambert10SG
f 3/3/50 24/46/40 23/45/39 9/37/48
s 1
usemtl initialShadingGroup
f 1/1/51 19/39/42 24/47/41 3/38/52
s 4
f 7/7/53 21/42/54 26/50/35 25/49/45
f 27/51/14 26/50/35 21/42/54 15/26/55
f 28/52/15 27/51/14 15/26/55 8/8/56
s 5
f 29/55/20 28/53/19 8/11/57 6/12/58
s 2
usemtl lambert10SG
f 16/30/59 30/56/6 29/54/5 6/33/60
usemtl lambert11SG
f 22/65/61 31/64/38 30/57/6 16/66/59
usemtl initialShadingGroup
f 32/60/49 31/58/38 22/43/61 5/5/62
s 6
f 7/13/63 25/48/22 32/59/21 5/14/64
