# This file uses centimeters as units for non-parametric coordinates.

mtllib scoreboard.mtl
g default
v -17.166636 19.584846 -11.708305
v -12.597793 19.584846 -11.708305
v -17.166636 21.898649 -11.708305
v -12.597793 21.898649 -11.708305
v -17.166636 21.898649 -11.939606
v -12.597793 21.898649 -11.939606
v -17.166636 19.584846 -11.939606
v -12.597793 19.584846 -11.939606
v -17.166636 21.713926 -11.708305
v -12.597793 21.713926 -11.708305
v -12.597793 21.713926 -11.939606
v -17.166636 21.713926 -11.939606
v -17.166636 19.810759 -11.708305
v -12.597793 19.810759 -11.708305
v -12.597793 19.810759 -11.939606
v -17.166636 19.810759 -11.939606
v -12.834436 19.584846 -11.708305
v -12.834436 19.584846 -11.939606
v -12.834435 19.810759 -11.939606
v -12.834435 21.713926 -11.939606
v -12.834436 21.898649 -11.939606
v -12.834436 21.898649 -11.708305
v -12.834436 21.713926 -11.708305
v -12.834436 19.810759 -11.708305
v -16.847467 19.584846 -11.708305
v -16.847467 19.584846 -11.939606
v -16.847467 19.810759 -11.939606
v -16.847467 21.713926 -11.939606
v -16.847467 21.898649 -11.939606
v -16.847467 21.898649 -11.708305
v -16.847467 21.713926 -11.708305
v -16.847467 19.810759 -11.708305
v -16.847467 21.713926 -11.723903
v -16.847467 19.810759 -11.723903
v -12.834436 19.810759 -11.723903
v -12.834436 21.713926 -11.723903
v -16.847467 21.713926 -11.770125
v -16.847467 19.810759 -11.770125
v -12.834436 19.810759 -11.770125
v -12.834436 21.713926 -11.770125
v -15.113627 20.349169 -11.907353
v -14.650802 20.349169 -11.907353
v -15.113627 20.811995 -11.907353
v -14.650802 20.811995 -11.907353
v -15.113627 20.811995 -13.748785
v -14.650802 20.811995 -13.748785
v -15.113627 20.349169 -13.748785
v -14.650802 20.349169 -13.748785
v -15.113627 20.327097 -13.641874
v -14.650802 20.327097 -13.641874
v -15.113627 20.794075 -13.553511
v -14.650802 20.794075 -13.553511
v -15.113627 22.079638 -15.294582
v -14.650802 22.079638 -15.294582
v -15.113627 21.612658 -15.382948
v -14.650802 21.612658 -15.382948
v -15.113627 21.524290 -15.472391
v -14.650802 21.524290 -15.472391
v -15.113627 21.518724 -15.009598
v -14.650802 21.518724 -15.009598
v -15.113627 23.360023 -14.987453
v -14.650802 23.360023 -14.987453
v -15.113627 23.365589 -15.450247
v -14.650802 23.365589 -15.450247
vt 0.612051 0.250000
vt 0.612051 0.230041
vt 0.625000 0.230041
vt 0.625000 0.250000
vt 0.612051 0.500000
vt 0.625000 0.500000
vt 0.612051 0.519959
vt 0.625000 0.519959
vt 0.612051 1.000000
vt 0.612051 0.750000
vt 0.625000 0.750000
vt 0.625000 1.000000
vt 0.875000 0.230041
vt 0.875000 0.250000
vt 0.125000 0.230041
vt 0.375000 0.230041
vt 0.375000 0.250000
vt 0.125000 0.250000
vt 0.612051 0.024409
vt 0.625000 0.024409
vt 0.875000 0.024409
vt 0.612051 0.725591
vt 0.625000 0.725591
vt 0.125000 0.024409
vt 0.375000 0.024409
vt 0.612051 0.000000
vt 0.625000 0.000000
vt 0.875000 0.000000
vt 0.125000 0.000000
vt 0.375000 0.000000
vt 0.392464 1.000000
vt 0.392464 0.750000
vt 0.392465 0.725591
vt 0.392465 0.519959
vt 0.392464 0.500000
vt 0.392464 0.250000
vt 0.392464 0.230041
vt 0.001307 1.005943
vt 0.001307 -0.002693
vt 1.003209 -0.002693
vt 1.003209 1.005943
vt 0.392464 0.024409
vt 0.392464 0.000000
vt 0.375000 0.750000
vt 0.375000 1.000000
vt 0.375000 0.725591
vt 0.375000 0.519959
vt 0.375000 0.500000
vt 0.392464 0.024409
vt 0.392464 0.230041
vt 0.612051 0.024409
vt 0.612051 0.230041
vt 0.375000 0.000000
vt 0.625000 0.000000
vt 0.625000 0.250000
vt 0.375000 0.250000
vt 0.625000 0.500000
vt 0.375000 0.500000
vt 0.625000 0.750000
vt 0.375000 0.750000
vt 0.625000 1.000000
vt 0.375000 1.000000
vt 0.875000 0.000000
vt 0.875000 0.250000
vt 0.125000 0.000000
vt 0.125000 0.250000
vt 0.375000 0.000000
vt 0.625000 0.000000
vt 0.625000 0.250000
vt 0.375000 0.250000
vt 0.625000 0.500000
vt 0.375000 0.500000
vt 0.625000 0.750000
vt 0.375000 0.750000
vt 0.625000 1.000000
vt 0.375000 1.000000
vt 0.875000 0.000000
vt 0.875000 0.250000
vt 0.125000 0.000000
vt 0.125000 0.250000
vt 0.375000 0.000000
vt 0.625000 0.000000
vt 0.625000 0.250000
vt 0.375000 0.250000
vt 0.625000 0.500000
vt 0.375000 0.500000
vt 0.625000 0.750000
vt 0.375000 0.750000
vt 0.625000 1.000000
vt 0.375000 1.000000
vt 0.875000 0.000000
vt 0.875000 0.250000
vt 0.125000 0.000000
vt 0.125000 0.250000
vn 0.000000 0.000000 1.000000
vn 0.000000 0.000000 1.000000
vn 0.000000 0.000000 1.000000
vn 0.000000 0.000000 1.000000
vn 0.000000 1.000000 0.000000
vn 0.000000 1.000000 0.000000
vn 0.000000 1.000000 0.000000
vn 0.000000 1.000000 0.000000
vn 0.000000 0.000000 -1.000000
vn 0.000000 0.000000 -1.000000
vn 0.000000 0.000000 -1.000000
vn 0.000000 0.000000 -1.000000
vn 0.000000 -1.000000 0.000000
vn 0.000000 -1.000000 0.000000
vn 0.000000 -1.000000 0.000000
vn 0.000000 -1.000000 0.000000
vn 1.000000 0.000000 0.000000
vn 1.000000 0.000000 0.000000
vn 1.000000 0.000000 0.000000
vn 1.000000 0.000000 0.000000
vn -1.000000 0.000000 0.000000
vn -1.000000 0.000000 0.000000
vn -1.000000 0.000000 0.000000
vn -1.000000 0.000000 0.000000
vn 0.000000 0.000000 1.000000
vn 0.000000 0.000000 1.000000
vn 0.000000 0.000000 1.000000
vn 0.000000 0.000000 1.000000
vn 1.000000 0.000000 0.000000
vn 1.000000 0.000000 0.000000
vn 1.000000 0.000000 0.000000
vn 1.000000 0.000000 0.000000
vn 0.000000 0.000000 -1.000000
vn 0.000000 0.000000 -1.000000
vn 0.000000 0.000000 -1.000000
vn 0.000000 0.000000 -1.000000
vn -1.000000 0.000000 0.000000
vn -1.000000 0.000000 0.000000
vn -1.000000 0.000000 0.000000
vn -1.000000 0.000000 0.000000
vn 0.000000 0.000000 1.000000
vn 0.000000 0.000000 1.000000
vn 0.000000 0.000000 1.000000
vn 0.000000 0.000000 1.000000
vn 1.000000 0.000000 0.000000
vn 1.000000 0.000000 0.000000
vn 1.000000 0.000000 0.000000
vn 1.000000 0.000000 0.000000
vn 0.000000 0.000000 -1.000000
vn 0.000000 0.000000 -1.000000
vn 0.000000 0.000000 -1.000000
vn 0.000000 0.000000 -1.000000
vn -1.000000 0.000000 0.000000
vn -1.000000 0.000000 0.000000
vn -1.000000 0.000000 0.000000
vn -1.000000 0.000000 0.000000
vn 0.000000 -1.000000 0.000000
vn 0.000000 -1.000000 0.000000
vn 0.000000 -1.000000 0.000000
vn 0.000000 -1.000000 0.000000
vn 0.000000 0.000000 -1.000000
vn 0.000000 0.000000 -1.000000
vn 0.000000 0.000000 -1.000000
vn 0.000000 0.000000 -1.000000
vn 0.000000 0.000000 -1.000000
vn 0.000000 0.000000 -1.000000
vn 0.000000 0.000000 -1.000000
vn 0.000000 0.000000 -1.000000
vn 0.000000 0.000000 -1.000000
vn 0.000000 0.000000 -1.000000
vn 0.000000 0.000000 -1.000000
vn 0.000000 0.000000 -1.000000
vn 0.000000 1.000000 0.000000
vn 0.000000 1.000000 0.000000
vn 0.000000 1.000000 0.000000
vn 0.000000 1.000000 0.000000
vn 0.000000 0.000000 1.000000
vn 0.000000 0.000000 1.000000
vn 0.000000 0.000000 1.000000
vn 0.000000 0.000000 1.000000
vn 0.000000 0.000000 1.000000
vn 0.000000 0.000000 1.000000
vn 0.000000 0.000000 1.000000
vn 0.000000 0.000000 1.000000
vn 0.000000 0.000000 1.000000
vn 0.000000 0.000000 1.000000
vn 0.000000 0.000000 1.000000
vn 0.000000 0.000000 1.000000
vn 0.000000 -1.000000 0.000000
vn 0.000000 -1.000000 0.000000
vn 0.000000 -1.000000 0.000000
vn 0.000000 -1.000000 0.000000
vn 0.000000 0.000000 -1.000000
vn 0.000000 0.000000 -1.000000
vn 0.000000 0.000000 -1.000000
vn 0.000000 0.000000 -1.000000
vn 0.000000 0.000000 -1.000000
vn 0.000000 0.000000 -1.000000
vn 0.000000 0.000000 -1.000000
vn 0.000000 0.000000 -1.000000
vn 0.000000 0.000000 -1.000000
vn 0.000000 0.000000 -1.000000
vn 0.000000 0.000000 -1.000000
vn 0.000000 0.000000 -1.000000
vn 0.000000 1.000000 0.000000
vn 0.000000 1.000000 0.000000
vn 0.000000 1.000000 0.000000
vn 0.000000 1.000000 0.000000
vn 0.000000 0.000000 1.000000
vn 0.000000 0.000000 1.000000
vn 0.000000 0.000000 1.000000
vn 0.000000 0.000000 1.000000
vn 0.000000 0.000000 1.000000
vn 0.000000 0.000000 1.000000
vn 0.000000 0.000000 1.000000
vn 0.000000 0.000000 1.000000
vn 0.000000 0.000000 1.000000
vn 0.000000 0.000000 1.000000
vn 0.000000 0.000000 1.000000
vn 0.000000 0.000000 1.000000
vn 1.000000 0.000000 0.000000
vn 1.000000 0.000000 0.000000
vn 1.000000 0.000000 0.000000
vn 1.000000 0.000000 0.000000
vn 0.000000 1.000000 0.000000
vn 0.000000 1.000000 0.000000
vn 0.000000 1.000000 0.000000
vn 0.000000 1.000000 0.000000
vn -1.000000 0.000000 0.000000
vn -1.000000 0.000000 0.000000
vn -1.000000 0.000000 0.000000
vn -1.000000 0.000000 0.000000
vn 0.000000 -1.000000 0.000000
vn 0.000000 -1.000000 0.000000
vn 0.000000 -1.000000 0.000000
vn 0.000000 -1.000000 0.000000
vn 1.000000 0.000000 0.000000
vn 1.000000 0.000000 0.000000
vn 1.000000 0.000000 0.000000
vn 1.000000 0.000000 0.000000
vn 0.000000 1.000000 0.000000
vn 0.000000 1.000000 0.000000
vn 0.000000 1.000000 0.000000
vn 0.000000 1.000000 0.000000
vn -1.000000 0.000000 0.000000
vn -1.000000 0.000000 0.000000
vn -1.000000 0.000000 0.000000
vn -1.000000 0.000000 0.000000
vn 0.000000 -1.000000 0.000000
vn 0.000000 -1.000000 0.000000
vn 0.000000 -1.000000 0.000000
vn 0.000000 -1.000000 0.000000
vn 0.000000 0.000000 1.000000
vn 0.000000 0.000000 1.000000
vn 0.000000 0.000000 1.000000
vn 0.000000 0.000000 1.000000
vn 0.000000 1.000000 0.000000
vn 0.000000 1.000000 0.000000
vn 0.000000 1.000000 0.000000
vn 0.000000 1.000000 0.000000
vn 0.000000 0.000000 -1.000000
vn 0.000000 0.000000 -1.000000
vn 0.000000 0.000000 -1.000000
vn 0.000000 0.000000 -1.000000
vn 0.000000 -1.000000 0.000000
vn 0.000000 -1.000000 0.000000
vn 0.000000 -1.000000 0.000000
vn 0.000000 -1.000000 0.000000
vn 1.000000 0.000000 0.000000
vn 1.000000 0.000000 0.000000
vn 1.000000 0.000000 0.000000
vn 1.000000 0.000000 0.000000
vn -1.000000 0.000000 0.000000
vn -1.000000 0.000000 0.000000
vn -1.000000 0.000000 0.000000
vn -1.000000 0.000000 0.000000
vn 0.000000 -0.185927 0.982564
vn 0.000000 -0.185927 0.982564
vn 0.000000 -0.185927 0.982564
vn 0.000000 -0.185927 0.982564
vn 0.000000 0.804467 0.593997
vn 0.000000 0.804467 0.593997
vn 0.000000 0.804467 0.593997
vn 0.000000 0.804467 0.593997
vn 0.000000 0.185927 -0.982564
vn 0.000000 0.185927 -0.982564
vn 0.000000 0.185927 -0.982564
vn 0.000000 0.185927 -0.982564
vn 0.000000 -0.804467 -0.593997
vn 0.000000 -0.804467 -0.593997
vn 0.000000 -0.804467 -0.593997
vn 0.000000 -0.804467 -0.593997
vn 1.000000 0.000000 0.000000
vn 1.000000 0.000000 0.000000
vn 1.000000 0.000000 0.000000
vn 1.000000 0.000000 0.000000
vn -1.000000 0.000000 0.000000
vn -1.000000 0.000000 0.000000
vn -1.000000 0.000000 0.000000
vn -1.000000 0.000000 0.000000
vn 0.000000 -0.999928 -0.012026
vn 0.000000 -0.999928 -0.012026
vn 0.000000 -0.999928 -0.012026
vn 0.000000 -0.999928 -0.012026
vn 0.000000 -0.012026 0.999928
vn 0.000000 -0.012026 0.999928
vn 0.000000 -0.012026 0.999928
vn 0.000000 -0.012026 0.999928
vn 0.000000 0.999928 0.012026
vn 0.000000 0.999928 0.012026
vn 0.000000 0.999928 0.012026
vn 0.000000 0.999928 0.012026
vn 0.000000 0.012026 -0.999928
vn 0.000000 0.012026 -0.999928
vn 0.000000 0.012026 -0.999928
vn 0.000000 0.012026 -0.999928
vn 1.000000 0.000000 0.000000
vn 1.000000 0.000000 0.000000
vn 1.000000 0.000000 0.000000
vn 1.000000 0.000000 0.000000
vn -1.000000 0.000000 0.000000
vn -1.000000 0.000000 0.000000
vn -1.000000 0.000000 0.000000
vn -1.000000 0.000000 0.000000
s off
g polySurface419
usemtl pantallaScore:lambert2SG
f 22/1/1 23/2/2 10/3/3 4/4/4
f 21/5/5 22/1/6 4/4/7 6/6/8
f 20/7/9 21/5/10 6/6/11 11/8/12
f 17/9/13 18/10/14 8/11/15 2/12/16
f 10/3/17 11/13/18 6/14/19 4/4/20
f 12/15/21 9/16/22 3/17/23 5/18/24
f 23/2/25 24/19/26 14/20/27 10/3/28
f 14/20/29 15/21/30 11/13/31 10/3/32
f 19/22/33 20/7/34 11/8/35 15/23/36
f 16/24/37 13/25/38 9/16/39 12/15/40
f 24/19/41 17/26/42 2/27/43 14/20/44
f 2/27/45 8/28/46 15/21/47 14/20/48
f 18/10/49 19/22/50 15/23/51 8/11/52
f 7/29/53 1/30/54 13/25/55 16/24/56
f 25/31/57 26/32/58 18/10/59 17/9/60
f 26/32/61 27/33/62 19/22/63 18/10/64
f 27/33/65 28/34/66 20/7/67 19/22/68
f 28/34/69 29/35/70 21/5/71 20/7/72
f 29/35/73 30/36/74 22/1/75 21/5/76
f 30/36/77 31/37/78 23/2/79 22/1/80
usemtl pantallaScore:lambert3SG
f 37/38/81 38/39/82 39/40/83 40/41/84
usemtl pantallaScore:lambert2SG
f 32/42/85 25/43/86 17/26/87 24/19/88
f 7/44/89 26/32/90 25/31/91 1/45/92
f 16/46/93 27/33/94 26/32/95 7/44/96
f 12/47/97 28/34/98 27/33/99 16/46/100
f 5/48/101 29/35/102 28/34/103 12/47/104
f 3/17/105 30/36/106 29/35/107 5/48/108
f 9/16/109 31/37/110 30/36/111 3/17/112
f 13/25/113 32/42/114 31/37/115 9/16/116
f 1/30/117 25/43/118 32/42/119 13/25/120
f 31/37/121 32/42/122 34/49/123 33/50/124
f 32/42/125 24/19/126 35/51/127 34/49/128
f 24/19/129 23/2/130 36/52/131 35/51/132
f 23/2/133 31/37/134 33/50/135 36/52/136
f 33/50/137 34/49/138 38/39/139 37/38/140
f 34/49/141 35/51/142 39/40/143 38/39/144
f 35/51/145 36/52/146 40/41/147 39/40/148
f 36/52/149 33/50/150 37/38/151 40/41/152
usemtl pantallaScore:phong1SG
f 41/53/153 42/54/154 44/55/155 43/56/156
f 43/56/157 44/55/158 46/57/159 45/58/160
f 45/58/161 46/57/162 48/59/163 47/60/164
f 47/60/165 48/59/166 42/61/167 41/62/168
f 42/54/169 48/63/170 46/64/171 44/55/172
f 47/65/173 41/53/174 43/56/175 45/66/176
f 49/67/177 50/68/178 52/69/179 51/70/180
f 51/70/181 52/69/182 54/71/183 53/72/184
f 53/72/185 54/71/186 56/73/187 55/74/188
f 55/74/189 56/73/190 50/75/191 49/76/192
f 50/68/193 56/77/194 54/78/195 52/69/196
f 55/79/197 49/67/198 51/70/199 53/80/200
usemtl pantallaScore:pasted__phong1SG1
f 57/81/201 58/82/202 60/83/203 59/84/204
f 59/84/205 60/83/206 62/85/207 61/86/208
f 61/86/209 62/85/210 64/87/211 63/88/212
f 63/88/213 64/87/214 58/89/215 57/90/216
f 58/82/217 64/91/218 62/92/219 60/83/220
f 63/93/221 57/81/222 59/84/223 61/94/224
