# This file uses centimeters as units for non-parametric coordinates.

mtllib scoreboard.mtl
g default
v -15.149696 21.524290 -15.472391
v -14.686869 21.524290 -15.472391
v -15.149696 21.518724 -15.009598
v -14.686869 21.518724 -15.009598
v -15.149696 23.360023 -14.987453
v -14.686869 23.360023 -14.987453
v -15.149696 23.365589 -15.450247
v -14.686869 23.365589 -15.450247
v -15.149696 20.327097 -13.641874
v -14.686869 20.327097 -13.641874
v -15.149696 20.794075 -13.553511
v -14.686869 20.794075 -13.553511
v -15.149696 22.079638 -15.294582
v -14.686869 22.079638 -15.294582
v -15.149696 21.612658 -15.382948
v -14.686869 21.612658 -15.382948
v -15.149696 20.349169 -11.907353
v -14.686869 20.349169 -11.907353
v -15.149696 20.811995 -11.907353
v -14.686869 20.811995 -11.907353
v -15.149696 20.811995 -13.748785
v -14.686869 20.811995 -13.748785
v -15.149696 20.349169 -13.748785
v -14.686869 20.349169 -13.748785
v -17.202705 19.584846 -11.708305
v -12.633862 19.584846 -11.708305
v -17.202705 21.898649 -11.708305
v -12.633862 21.898649 -11.708305
v -17.202705 21.898649 -11.939606
v -12.633862 21.898649 -11.939606
v -17.202705 19.584846 -11.939606
v -12.633862 19.584846 -11.939606
v -17.202705 21.713926 -11.708305
v -12.633862 21.713926 -11.708305
v -12.633862 21.713926 -11.939606
v -17.202705 21.713926 -11.939606
v -17.202705 19.810759 -11.708305
v -12.633862 19.810759 -11.708305
v -12.633862 19.810759 -11.939606
v -17.202705 19.810759 -11.939606
v -12.870505 19.584846 -11.708305
v -12.870505 19.584846 -11.939606
v -12.870503 19.810759 -11.939606
v -12.870503 21.713926 -11.939606
v -12.870505 21.898649 -11.939606
v -12.870505 21.898649 -11.708305
v -12.870505 21.713926 -11.708305
v -12.870505 19.810759 -11.708305
v -16.883535 19.584846 -11.708305
v -16.883535 19.584846 -11.939606
v -16.883535 19.810759 -11.939606
v -16.883535 21.713926 -11.939606
v -16.883535 21.898649 -11.939606
v -16.883535 21.898649 -11.708305
v -16.883535 21.713926 -11.708305
v -16.883535 19.810759 -11.708305
v -16.883535 21.713926 -11.723903
v -16.883535 19.810759 -11.723903
v -12.870505 19.810759 -11.723903
v -12.870505 21.713926 -11.723903
v -16.883535 21.713926 -11.770125
v -16.883535 19.810759 -11.770125
v -12.870505 19.810759 -11.770125
v -12.870505 21.713926 -11.770125
v -16.842783 19.879082 -11.708790
v -12.915793 19.879082 -11.708790
v -16.842783 21.704182 -11.708790
v -12.915793 21.704182 -11.708790
v -16.842783 21.704182 -11.883190
v -12.915793 21.704182 -11.883190
v -16.842783 19.879082 -11.883190
v -12.915793 19.879082 -11.883190
vt 0.375000 0.000000
vt 0.625000 0.000000
vt 0.625000 0.250000
vt 0.375000 0.250000
vt 0.625000 0.500000
vt 0.375000 0.500000
vt 0.625000 0.750000
vt 0.375000 0.750000
vt 0.625000 1.000000
vt 0.375000 1.000000
vt 0.875000 0.000000
vt 0.875000 0.250000
vt 0.125000 0.000000
vt 0.125000 0.250000
vt 0.375000 0.000000
vt 0.625000 0.000000
vt 0.625000 0.250000
vt 0.375000 0.250000
vt 0.625000 0.500000
vt 0.375000 0.500000
vt 0.625000 0.750000
vt 0.375000 0.750000
vt 0.625000 1.000000
vt 0.375000 1.000000
vt 0.875000 0.000000
vt 0.875000 0.250000
vt 0.125000 0.000000
vt 0.125000 0.250000
vt 0.375000 0.000000
vt 0.625000 0.000000
vt 0.625000 0.250000
vt 0.375000 0.250000
vt 0.625000 0.500000
vt 0.375000 0.500000
vt 0.625000 0.750000
vt 0.375000 0.750000
vt 0.625000 1.000000
vt 0.375000 1.000000
vt 0.875000 0.000000
vt 0.875000 0.250000
vt 0.125000 0.000000
vt 0.125000 0.250000
vt 0.612051 0.250000
vt 0.612051 0.230041
vt 0.625000 0.230041
vt 0.625000 0.250000
vt 0.612051 0.500000
vt 0.625000 0.500000
vt 0.612051 0.519959
vt 0.625000 0.519959
vt 0.612051 1.000000
vt 0.612051 0.750000
vt 0.625000 0.750000
vt 0.625000 1.000000
vt 0.875000 0.230041
vt 0.875000 0.250000
vt 0.125000 0.230041
vt 0.375000 0.230041
vt 0.375000 0.250000
vt 0.125000 0.250000
vt 0.612051 0.024409
vt 0.625000 0.024409
vt 0.875000 0.024409
vt 0.612051 0.725591
vt 0.625000 0.725591
vt 0.125000 0.024409
vt 0.375000 0.024409
vt 0.612051 0.000000
vt 0.625000 0.000000
vt 0.875000 0.000000
vt 0.125000 0.000000
vt 0.375000 0.000000
vt 0.392464 1.000000
vt 0.392464 0.750000
vt 0.392465 0.725591
vt 0.392465 0.519959
vt 0.392464 0.500000
vt 0.392464 0.250000
vt 0.392464 0.230041
vt 0.001307 1.005943
vt 0.001307 -0.002693
vt 1.003209 -0.002693
vt 1.003209 1.005943
vt 0.392464 0.024409
vt 0.392464 0.000000
vt 0.375000 0.750000
vt 0.375000 1.000000
vt 0.375000 0.725591
vt 0.375000 0.519959
vt 0.375000 0.500000
vt 0.392464 0.024409
vt 0.392464 0.230041
vt 0.612051 0.024409
vt 0.612051 0.230041
vt -0.002333 -0.004724
vt 1.002333 -0.004724
vt 1.002333 0.999942
vt -0.002333 0.999942
vt 0.375000 0.250000
vt 0.625000 0.250000
vt 0.625000 0.500000
vt 0.375000 0.500000
vt 0.625000 0.750000
vt 0.375000 0.750000
vt 0.625000 1.000000
vt 0.375000 1.000000
vt 0.625000 0.000000
vt 0.875000 0.000000
vt 0.875000 0.250000
vt 0.625000 0.250000
vt 0.125000 0.000000
vt 0.375000 0.000000
vt 0.375000 0.250000
vt 0.125000 0.250000
vn 0.000000 -0.999928 -0.012026
vn 0.000000 -0.999928 -0.012026
vn 0.000000 -0.999928 -0.012026
vn 0.000000 -0.999928 -0.012026
vn 0.000000 -0.012026 0.999928
vn 0.000000 -0.012026 0.999928
vn 0.000000 -0.012026 0.999928
vn 0.000000 -0.012026 0.999928
vn 0.000000 0.999928 0.012026
vn 0.000000 0.999928 0.012026
vn 0.000000 0.999928 0.012026
vn 0.000000 0.999928 0.012026
vn 0.000000 0.012026 -0.999928
vn 0.000000 0.012026 -0.999928
vn 0.000000 0.012026 -0.999928
vn 0.000000 0.012026 -0.999928
vn 1.000000 0.000000 0.000000
vn 1.000000 0.000000 0.000000
vn 1.000000 0.000000 0.000000
vn 1.000000 0.000000 0.000000
vn -1.000000 0.000000 0.000000
vn -1.000000 0.000000 0.000000
vn -1.000000 0.000000 0.000000
vn -1.000000 0.000000 0.000000
vn 0.000000 -0.185927 0.982564
vn 0.000000 -0.185927 0.982564
vn 0.000000 -0.185927 0.982564
vn 0.000000 -0.185927 0.982564
vn 0.000000 0.804467 0.593997
vn 0.000000 0.804467 0.593997
vn 0.000000 0.804467 0.593997
vn 0.000000 0.804467 0.593997
vn 0.000000 0.185927 -0.982564
vn 0.000000 0.185927 -0.982564
vn 0.000000 0.185927 -0.982564
vn 0.000000 0.185927 -0.982564
vn 0.000000 -0.804467 -0.593997
vn 0.000000 -0.804467 -0.593997
vn 0.000000 -0.804467 -0.593997
vn 0.000000 -0.804467 -0.593997
vn 1.000000 0.000000 0.000000
vn 1.000000 0.000000 0.000000
vn 1.000000 0.000000 0.000000
vn 1.000000 0.000000 0.000000
vn -1.000000 0.000000 0.000000
vn -1.000000 0.000000 0.000000
vn -1.000000 0.000000 0.000000
vn -1.000000 0.000000 0.000000
vn 0.000000 0.000000 1.000000
vn 0.000000 0.000000 1.000000
vn 0.000000 0.000000 1.000000
vn 0.000000 0.000000 1.000000
vn 0.000000 1.000000 0.000000
vn 0.000000 1.000000 0.000000
vn 0.000000 1.000000 0.000000
vn 0.000000 1.000000 0.000000
vn 0.000000 0.000000 -1.000000
vn 0.000000 0.000000 -1.000000
vn 0.000000 0.000000 -1.000000
vn 0.000000 0.000000 -1.000000
vn 0.000000 -1.000000 0.000000
vn 0.000000 -1.000000 0.000000
vn 0.000000 -1.000000 0.000000
vn 0.000000 -1.000000 0.000000
vn 1.000000 0.000000 0.000000
vn 1.000000 0.000000 0.000000
vn 1.000000 0.000000 0.000000
vn 1.000000 0.000000 0.000000
vn -1.000000 0.000000 0.000000
vn -1.000000 0.000000 0.000000
vn -1.000000 0.000000 0.000000
vn -1.000000 0.000000 0.000000
vn 0.000000 0.000000 1.000000
vn 0.000000 0.000000 1.000000
vn 0.000000 0.000000 1.000000
vn 0.000000 0.000000 1.000000
vn 0.000000 1.000000 0.000000
vn 0.000000 1.000000 0.000000
vn 0.000000 1.000000 0.000000
vn 0.000000 1.000000 0.000000
vn 0.000000 0.000000 -1.000000
vn 0.000000 0.000000 -1.000000
vn 0.000000 0.000000 -1.000000
vn 0.000000 0.000000 -1.000000
vn 0.000000 -1.000000 0.000000
vn 0.000000 -1.000000 0.000000
vn 0.000000 -1.000000 0.000000
vn 0.000000 -1.000000 0.000000
vn 1.000000 0.000000 0.000000
vn 1.000000 0.000000 0.000000
vn 1.000000 0.000000 0.000000
vn 1.000000 0.000000 0.000000
vn -1.000000 0.000000 0.000000
vn -1.000000 0.000000 0.000000
vn -1.000000 0.000000 0.000000
vn -1.000000 0.000000 0.000000
vn 0.000000 0.000000 1.000000
vn 0.000000 0.000000 1.000000
vn 0.000000 0.000000 1.000000
vn 0.000000 0.000000 1.000000
vn 1.000000 0.000000 0.000000
vn 1.000000 0.000000 0.000000
vn 1.000000 0.000000 0.000000
vn 1.000000 0.000000 0.000000
vn 0.000000 0.000000 -1.000000
vn 0.000000 0.000000 -1.000000
vn 0.000000 0.000000 -1.000000
vn 0.000000 0.000000 -1.000000
vn -1.000000 0.000000 0.000000
vn -1.000000 0.000000 0.000000
vn -1.000000 0.000000 0.000000
vn -1.000000 0.000000 0.000000
vn 0.000000 0.000000 1.000000
vn 0.000000 0.000000 1.000000
vn 0.000000 0.000000 1.000000
vn 0.000000 0.000000 1.000000
vn 1.000000 0.000000 0.000000
vn 1.000000 0.000000 0.000000
vn 1.000000 0.000000 0.000000
vn 1.000000 0.000000 0.000000
vn 0.000000 0.000000 -1.000000
vn 0.000000 0.000000 -1.000000
vn 0.000000 0.000000 -1.000000
vn 0.000000 0.000000 -1.000000
vn -1.000000 0.000000 0.000000
vn -1.000000 0.000000 0.000000
vn -1.000000 0.000000 0.000000
vn -1.000000 0.000000 0.000000
vn 0.000000 -1.000000 0.000000
vn 0.000000 -1.000000 0.000000
vn 0.000000 -1.000000 0.000000
vn 0.000000 -1.000000 0.000000
vn 0.000000 0.000000 -1.000000
vn 0.000000 0.000000 -1.000000
vn 0.000000 0.000000 -1.000000
vn 0.000000 0.000000 -1.000000
vn 0.000000 0.000000 -1.000000
vn 0.000000 0.000000 -1.000000
vn 0.000000 0.000000 -1.000000
vn 0.000000 0.000000 -1.000000
vn 0.000000 0.000000 -1.000000
vn 0.000000 0.000000 -1.000000
vn 0.000000 0.000000 -1.000000
vn 0.000000 0.000000 -1.000000
vn 0.000000 1.000000 0.000000
vn 0.000000 1.000000 0.000000
vn 0.000000 1.000000 0.000000
vn 0.000000 1.000000 0.000000
vn 0.000000 0.000000 1.000000
vn 0.000000 0.000000 1.000000
vn 0.000000 0.000000 1.000000
vn 0.000000 0.000000 1.000000
vn 0.000000 0.000000 1.000000
vn 0.000000 0.000000 1.000000
vn 0.000000 0.000000 1.000000
vn 0.000000 0.000000 1.000000
vn 0.000000 0.000000 1.000000
vn 0.000000 0.000000 1.000000
vn 0.000000 0.000000 1.000000
vn 0.000000 0.000000 1.000000
vn 0.000000 -1.000000 0.000000
vn 0.000000 -1.000000 0.000000
vn 0.000000 -1.000000 0.000000
vn 0.000000 -1.000000 0.000000
vn 0.000000 0.000000 -1.000000
vn 0.000000 0.000000 -1.000000
vn 0.000000 0.000000 -1.000000
vn 0.000000 0.000000 -1.000000
vn 0.000000 0.000000 -1.000000
vn 0.000000 0.000000 -1.000000
vn 0.000000 0.000000 -1.000000
vn 0.000000 0.000000 -1.000000
vn 0.000000 0.000000 -1.000000
vn 0.000000 0.000000 -1.000000
vn 0.000000 0.000000 -1.000000
vn 0.000000 0.000000 -1.000000
vn 0.000000 1.000000 0.000000
vn 0.000000 1.000000 0.000000
vn 0.000000 1.000000 0.000000
vn 0.000000 1.000000 0.000000
vn 0.000000 0.000000 1.000000
vn 0.000000 0.000000 1.000000
vn 0.000000 0.000000 1.000000
vn 0.000000 0.000000 1.000000
vn 0.000000 0.000000 1.000000
vn 0.000000 0.000000 1.000000
vn 0.000000 0.000000 1.000000
vn 0.000000 0.000000 1.000000
vn 0.000000 0.000000 1.000000
vn 0.000000 0.000000 1.000000
vn 0.000000 0.000000 1.000000
vn 0.000000 0.000000 1.000000
vn 1.000000 0.000000 0.000000
vn 1.000000 0.000000 0.000000
vn 1.000000 0.000000 0.000000
vn 1.000000 0.000000 0.000000
vn 0.000000 1.000000 0.000000
vn 0.000000 1.000000 0.000000
vn 0.000000 1.000000 0.000000
vn 0.000000 1.000000 0.000000
vn -1.000000 0.000000 0.000000
vn -1.000000 0.000000 0.000000
vn -1.000000 0.000000 0.000000
vn -1.000000 0.000000 0.000000
vn 0.000000 -1.000000 0.000000
vn 0.000000 -1.000000 0.000000
vn 0.000000 -1.000000 0.000000
vn 0.000000 -1.000000 0.000000
vn 1.000000 0.000000 0.000000
vn 1.000000 0.000000 0.000000
vn 1.000000 0.000000 0.000000
vn 1.000000 0.000000 0.000000
vn 0.000000 1.000000 0.000000
vn 0.000000 1.000000 0.000000
vn 0.000000 1.000000 0.000000
vn 0.000000 1.000000 0.000000
vn -1.000000 0.000000 0.000000
vn -1.000000 0.000000 0.000000
vn -1.000000 0.000000 0.000000
vn -1.000000 0.000000 0.000000
vn 0.000000 -1.000000 0.000000
vn 0.000000 -1.000000 0.000000
vn 0.000000 -1.000000 0.000000
vn 0.000000 -1.000000 0.000000
vn 0.000000 0.000000 1.000000
vn 0.000000 0.000000 1.000000
vn 0.000000 0.000000 1.000000
vn 0.000000 0.000000 1.000000
vn 0.000000 1.000000 0.000000
vn 0.000000 1.000000 0.000000
vn 0.000000 1.000000 0.000000
vn 0.000000 1.000000 0.000000
vn 0.000000 0.000000 -1.000000
vn 0.000000 0.000000 -1.000000
vn 0.000000 0.000000 -1.000000
vn 0.000000 0.000000 -1.000000
vn 0.000000 -1.000000 0.000000
vn 0.000000 -1.000000 0.000000
vn 0.000000 -1.000000 0.000000
vn 0.000000 -1.000000 0.000000
vn 1.000000 0.000000 0.000000
vn 1.000000 0.000000 0.000000
vn 1.000000 0.000000 0.000000
vn 1.000000 0.000000 0.000000
vn -1.000000 0.000000 0.000000
vn -1.000000 0.000000 0.000000
vn -1.000000 0.000000 0.000000
vn -1.000000 0.000000 0.000000
s off
g polySurface424
usemtl pantallaScore:pasted__phong1SG1
f 1/1/1 2/2/2 4/3/3 3/4/4
f 3/4/5 4/3/6 6/5/7 5/6/8
f 5/6/9 6/5/10 8/7/11 7/8/12
f 7/8/13 8/7/14 2/9/15 1/10/16
f 2/2/17 8/11/18 6/12/19 4/3/20
f 7/13/21 1/1/22 3/4/23 5/14/24
usemtl pantallaScore:phong1SG
f 9/15/25 10/16/26 12/17/27 11/18/28
f 11/18/29 12/17/30 14/19/31 13/20/32
f 13/20/33 14/19/34 16/21/35 15/22/36
f 15/22/37 16/21/38 10/23/39 9/24/40
f 10/16/41 16/25/42 14/26/43 12/17/44
f 15/27/45 9/15/46 11/18/47 13/28/48
f 17/29/49 18/30/50 20/31/51 19/32/52
f 19/32/53 20/31/54 22/33/55 21/34/56
f 21/34/57 22/33/58 24/35/59 23/36/60
f 23/36/61 24/35/62 18/37/63 17/38/64
f 18/30/65 24/39/66 22/40/67 20/31/68
f 23/41/69 17/29/70 19/32/71 21/42/72
usemtl pantallaScore:lambert2SG
f 46/43/73 47/44/74 34/45/75 28/46/76
f 45/47/77 46/43/78 28/46/79 30/48/80
f 44/49/81 45/47/82 30/48/83 35/50/84
f 41/51/85 42/52/86 32/53/87 26/54/88
f 34/45/89 35/55/90 30/56/91 28/46/92
f 36/57/93 33/58/94 27/59/95 29/60/96
f 47/44/97 48/61/98 38/62/99 34/45/100
f 38/62/101 39/63/102 35/55/103 34/45/104
f 43/64/105 44/49/106 35/50/107 39/65/108
f 40/66/109 37/67/110 33/58/111 36/57/112
f 48/61/113 41/68/114 26/69/115 38/62/116
f 26/69/117 32/70/118 39/63/119 38/62/120
f 42/52/121 43/64/122 39/65/123 32/53/124
f 31/71/125 25/72/126 37/67/127 40/66/128
f 49/73/129 50/74/130 42/52/131 41/51/132
f 50/74/133 51/75/134 43/64/135 42/52/136
f 51/75/137 52/76/138 44/49/139 43/64/140
f 52/76/141 53/77/142 45/47/143 44/49/144
f 53/77/145 54/78/146 46/43/147 45/47/148
f 54/78/149 55/79/150 47/44/151 46/43/152
usemtl pantallaScore:lambert3SG
f 61/80/153 62/81/154 63/82/155 64/83/156
usemtl pantallaScore:lambert2SG
f 56/84/157 49/85/158 41/68/159 48/61/160
f 31/86/161 50/74/162 49/73/163 25/87/164
f 40/88/165 51/75/166 50/74/167 31/86/168
f 36/89/169 52/76/170 51/75/171 40/88/172
f 29/90/173 53/77/174 52/76/175 36/89/176
f 27/59/177 54/78/178 53/77/179 29/90/180
f 33/58/181 55/79/182 54/78/183 27/59/184
f 37/67/185 56/84/186 55/79/187 33/58/188
f 25/72/189 49/85/190 56/84/191 37/67/192
f 55/79/193 56/84/194 58/91/195 57/92/196
f 56/84/197 48/61/198 59/93/199 58/91/200
f 48/61/201 47/44/202 60/94/203 59/93/204
f 47/44/205 55/79/206 57/92/207 60/94/208
f 57/92/209 58/91/210 62/81/211 61/80/212
f 58/91/213 59/93/214 63/82/215 62/81/216
f 59/93/217 60/94/218 64/83/219 63/82/220
f 60/94/221 57/92/222 61/80/223 64/83/224
usemtl lambert9SG
f 65/95/225 66/96/226 68/97/227 67/98/228
f 67/99/229 68/100/230 70/101/231 69/102/232
f 69/102/233 70/101/234 72/103/235 71/104/236
f 71/104/237 72/103/238 66/105/239 65/106/240
f 66/107/241 72/108/242 70/109/243 68/110/244
f 71/111/245 65/112/246 67/113/247 69/114/248
