# This file uses centimeters as units for non-parametric coordinates.

mtllib escobilla.mtl
g default
v -2.349486 15.158713 -33.981015
v 3.951354 15.158713 -33.981015
v -2.349486 15.922026 -33.981015
v 3.951354 15.922026 -33.981015
v -2.349491 15.922029 -34.273373
v 3.951349 15.922029 -34.273373
v -2.349491 15.158716 -34.273373
v 3.951349 15.158716 -34.273373
vt 0.375000 0.000000
vt 1.040733 -0.051733
vt 0.375000 0.250000
vt 0.625000 0.250000
vt 0.375000 0.500000
vt 0.625000 0.500000
vt 0.375000 0.750000
vt 0.625000 0.750000
vt 0.375000 1.000000
vt 0.625000 1.000000
vt 0.875000 0.000000
vt 0.875000 0.250000
vt 0.125000 0.000000
vt 0.125000 0.250000
vt 0.625000 0.000000
vt 1.040733 1.008933
vt 0.625000 0.250000
vt -0.019933 -0.051733
vt -0.019933 1.008933
vt 0.375000 0.250000
vn 0.000000 0.000000 1.000000
vn 0.000000 0.000000 1.000000
vn 0.000000 0.000000 1.000000
vn 0.000000 0.000000 1.000000
vn 0.000000 1.000000 0.000011
vn 0.000000 1.000000 0.000011
vn 0.000000 1.000000 0.000011
vn 0.000000 1.000000 0.000011
vn 0.000000 0.000000 -1.000000
vn 0.000000 0.000000 -1.000000
vn 0.000000 0.000000 -1.000000
vn 0.000000 0.000000 -1.000000
vn 0.000000 -1.000000 -0.000011
vn 0.000000 -1.000000 -0.000011
vn 0.000000 -1.000000 -0.000011
vn 0.000000 -1.000000 -0.000011
vn 1.000000 0.000000 -0.000018
vn 1.000000 0.000000 -0.000018
vn 1.000000 0.000000 -0.000018
vn 1.000000 0.000000 -0.000018
vn -1.000000 0.000000 0.000018
vn -1.000000 0.000000 0.000018
vn -1.000000 0.000000 0.000018
vn -1.000000 0.000000 0.000018
s off
g pCube85
usemtl phong9SG
f 1/18/1 2/2/2 4/16/3 3/19/4
usemtl phong8SG
f 3/3/5 4/17/6 6/6/7 5/5/8
f 5/5/9 6/6/10 8/8/11 7/7/12
f 7/7/13 8/8/14 2/10/15 1/9/16
f 2/15/17 8/11/18 6/12/19 4/4/20
f 7/13/21 1/1/22 3/20/23 5/14/24
