# This file uses centimeters as units for non-parametric coordinates.

mtllib puertaR.mtl
g default
v 0.034877 -0.039032 1.762882
v 4.550135 -0.027683 1.715923
v 0.033420 0.566610 1.769139
v 4.548677 0.577959 1.722179
v 0.001015 0.598638 -1.338897
v 4.516273 0.609987 -1.385858
v 0.002472 -0.007005 -1.345154
v 4.517731 0.004344 -1.392114
vt 0.375000 0.000000
vt 0.625000 0.000000
vt 0.625000 0.250000
vt 0.375000 0.250000
vt 0.625000 0.500000
vt 0.375000 0.500000
vt 0.625000 0.750000
vt 0.375000 0.750000
vt 0.625000 1.000000
vt 0.375000 1.000000
vt 0.875000 0.000000
vt 0.875000 0.250000
vt 0.125000 0.000000
vt 0.125000 0.250000
vn 0.010425 -0.010304 0.999893
vn 0.010425 -0.010304 0.999893
vn 0.010425 -0.010304 0.999893
vn 0.010425 -0.010304 0.999893
vn -0.002406 0.999944 0.010329
vn -0.002406 0.999944 0.010329
vn -0.002406 0.999944 0.010329
vn -0.002406 0.999944 0.010329
vn -0.010425 0.010304 -0.999893
vn -0.010425 0.010304 -0.999893
vn -0.010425 0.010304 -0.999893
vn -0.010425 0.010304 -0.999893
vn 0.002406 -0.999944 -0.010329
vn 0.002406 -0.999944 -0.010329
vn 0.002406 -0.999944 -0.010329
vn 0.002406 -0.999944 -0.010329
vn 0.999943 0.002513 -0.010400
vn 0.999943 0.002513 -0.010400
vn 0.999943 0.002513 -0.010400
vn 0.999943 0.002513 -0.010400
vn -0.999943 -0.002513 0.010400
vn -0.999943 -0.002513 0.010400
vn -0.999943 -0.002513 0.010400
vn -0.999943 -0.002513 0.010400
s off
g puertaR:polySurface135pasted__pasted__pasted__pCube33
usemtl puertaR:phong5SG
f 1/1/1 2/2/2 4/3/3 3/4/4
f 3/4/5 4/3/6 6/5/7 5/6/8
f 5/6/9 6/5/10 8/7/11 7/8/12
f 7/8/13 8/7/14 2/9/15 1/10/16
f 2/2/17 8/11/18 6/12/19 4/3/20
f 7/13/21 1/1/22 3/4/23 5/14/24
